<svg width="188" height="28" viewBox="0 0 177 24" fill="none" xmlns="http://www.w3.org/2000/svg" aria-hidden="true">
  <!-- Multicolor LEMMA + teal PHI + original black TM -->
  <path d="M6.35891 0.000220876H0V23.6449H14.6531V17.645H6.35891V0.000220876Z" fill="#009452"/>
  <path d="M15.6532 0.000220876V23.6449H30.3063V19.4813V17.645H22.0121V14.4181H28.8456V9.16513H22.0121V6.00012H30.3063V0.000220876H15.6532Z" fill="#ED2C80"/>
  <path d="M51.1383 0.000220876L44.4864 6.63972L37.6158 0.000220876H31.3064V23.6449H37.6447H37.6694V9.69745L44.4038 15.7799L51.1383 9.96154L51.1795 23.6449H57.5013V0.000220876H51.1383Z" fill="#1182C5"/>
  <path d="M78.3335 0.000220876L71.6816 6.63972L64.811 0.000220876H58.5016V23.6449H64.8399H64.8646V9.69745L71.599 15.7799L78.3335 9.96154L78.3706 23.6449H84.6923V0.000220876H78.3335Z" fill="#73BE44"/>
  <path d="M102.182 0.000220876H85.6925V6.00012H93.4874L85.6925 23.6449H112.539L102.182 0.000220876ZM103.469 17.5625H94.8863L99.1242 7.96432L103.469 17.5625Z" fill="#F05A25"/>
  <path d="M165.439 23.6447H116.466L106.228 0H165.439V23.6447Z" fill="#007B7B"/>
  <path d="M145.554 9.9405H140.148V4.44403H136.612V19.1508H140.148V12.9776H145.554V19.1508H149.09V4.44403H145.554V9.9405Z" fill="white"/>
  <path d="M154.636 4.44403H151.095V19.1508H154.636V4.44403Z" fill="white"/>
  <path d="M158.721 15.2965C157.591 15.2965 156.675 16.2126 156.675 17.3432C156.675 18.4739 157.591 19.3899 158.721 19.3899C159.852 19.3899 160.768 18.4739 160.768 17.3432C160.768 16.2126 159.852 15.2965 158.721 15.2965Z" fill="white"/>
  <path d="M122.194 4.68333C120.064 5.40546 118.534 7.41506 118.534 9.78366C118.534 12.763 120.948 15.177 123.927 15.177H124.748V19.1508H128.371V15.177H129.295C132.275 15.177 134.689 12.763 134.689 9.78366C134.689 6.80434 132.275 4.39448 129.295 4.39448H124.748V12.1234H123.844C122.557 12.1234 121.505 11.0752 121.505 9.78366C121.505 9.1358 121.769 8.55397 122.194 8.12894V4.68333ZM129.246 12.0367H128.416V7.79882H129.246C130.414 7.79882 131.363 8.74792 131.363 9.91571C131.363 11.0835 130.414 12.0326 129.246 12.0326" fill="white"/>
  <g id="phi-tm-mark" transform="translate(166.2 0.18) scale(0.92)">
    <path d="M1.74691 5.30884V0.629861H0V0.00640865H4.2037V0.629861H2.45061V5.30884H1.74691Z" fill="black"/>
    <path d="M4.90154 5.30861V0.00617279H5.9571L7.21019 3.75923C7.32747 4.11108 7.40772 4.37034 7.46327 4.54318C7.525 4.35182 7.61759 4.06787 7.74722 3.69133L9.01882 0H9.96326V5.30243H9.28425V0.864192L7.74104 5.30243H7.10524L5.57439 0.790118V5.30243H4.89538L4.90154 5.30861Z" fill="black"/>
  </g>
</svg>
