<svg width="172" height="24" viewBox="0 0 172 24" fill="none" xmlns="http://www.w3.org/2000/svg">
<g opacity="0.7">
<path d="M166.545 3.58178V0.420896H165.385V0H168.175V0.420896H167.011V3.58178H166.545Z" fill="#1581C5"/>
<path d="M168.642 3.58178V0H169.343L170.175 2.53778C170.252 2.77299 170.309 2.95043 170.341 3.07009C170.382 2.93805 170.443 2.74823 170.528 2.49651L171.371 0.00412421H172V3.5859H171.55V0.585959L170.528 3.5859H170.106L169.088 0.536437V3.5859H168.638L168.642 3.58178Z" fill="#1581C5"/>
<path d="M162.603 23.6447H114.469L104.407 0H162.603V23.6447Z" fill="#1581C5"/>
<path d="M15.3849 0V23.6447H29.7868V19.4811V17.6448H21.6348V14.4179H28.3511V9.16491H21.6348V5.9999H29.7868V0H15.3849Z" fill="#1581C5"/>
<path d="M6.2499 0H0V23.6447H14.4019V17.6448H6.2499V0Z" fill="#1581C5"/>
<path d="M50.2616 0L43.7237 6.6395L36.9709 0H30.7697V23.6447H36.9993H37.0237V9.69723L43.6426 15.7797L50.2616 9.96132L50.3022 23.6447H56.5156V0H50.2616Z" fill="#1581C5"/>
<path d="M76.9906 0L70.4527 6.6395L63.6999 0H57.4987V23.6447H63.7283H63.7527V9.69723L70.3716 15.7797L76.9906 9.96132L77.0271 23.6447H83.2405V0H76.9906Z" fill="#1581C5"/>
<path d="M100.43 0H84.2235V5.9999H91.8848L84.2235 23.6447H110.61L100.43 0ZM101.696 17.5623H93.2597L97.425 7.9641L101.696 17.5623Z" fill="#1581C5"/>
<path d="M143.058 9.94032H137.745V4.44385H134.27V19.1506H137.745V12.9774H143.058V19.1506H146.534V4.44385H143.058V9.94032Z" fill="white"/>
<path d="M151.985 4.44385H148.505V19.1506H151.985V4.44385Z" fill="white"/>
<path d="M156 15.2964C154.889 15.2964 153.989 16.2125 153.989 17.3431C153.989 18.4738 154.889 19.3899 156 19.3899C157.112 19.3899 158.012 18.4738 158.012 17.3431C158.012 16.2125 157.112 15.2964 156 15.2964Z" fill="white"/>
<path d="M120.099 4.6829C118.006 5.40503 116.502 7.41462 116.502 9.78322C116.502 12.7625 118.874 15.1765 121.802 15.1765H122.609V19.1503H126.17V15.1765H127.079C130.007 15.1765 132.38 12.7625 132.38 9.78322C132.38 6.80391 130.007 4.39404 127.079 4.39404H122.609V12.1229H121.721C120.456 12.1229 119.422 11.0748 119.422 9.78322C119.422 9.13537 119.681 8.55354 120.099 8.12851V4.6829ZM127.03 12.0363H126.215V7.79839H127.03C128.178 7.79839 129.111 8.74748 129.111 9.91527C129.111 11.0831 128.178 12.0322 127.03 12.0322" fill="white"/>
</g>
</svg>
